<svg id="Layer_1" data-name="Layer 1" xmlns="http://www.w3.org/2000/svg" viewBox="0 0 468 720"><defs><style>.cls-1{fill:#231f20;}.cls-2{fill:#1b75bb;}.cls-3{fill:#1c75bc;}</style></defs><path class="cls-1" d="M401.72,460.87H67.81A60.59,60.59,0,0,1,7.29,400.35V66.45A60.59,60.59,0,0,1,67.81,5.93H401.72a60.59,60.59,0,0,1,60.52,60.52v333.9A60.59,60.59,0,0,1,401.72,460.87ZM67.81,26.46a40,40,0,0,0-40,40v333.9a40,40,0,0,0,40,40H401.72a40,40,0,0,0,40-40V66.45a40,40,0,0,0-40-40Z"/><path class="cls-1" d="M235.25,413.23c-54.64,0-99.09-46.09-99.09-102.73H149c0,49.57,38.7,89.9,86.26,89.9s86.27-40.33,86.27-89.9h12.83C334.35,367.14,289.9,413.23,235.25,413.23Z"/><path class="cls-1" d="M243,345.16v-10h57.16a67.7,67.7,0,0,0,3.09-15.93H167.31a68.2,68.2,0,0,0,3.08,15.93h56.68v10H174.5a68.14,68.14,0,0,0,121.51,0Z"/><path class="cls-1" d="M227.07,283.46v9.94H170.39a68.28,68.28,0,0,0-3.08,15.94H303.2a67.78,67.78,0,0,0-3.09-15.94H243v-9.94H296a68.14,68.14,0,0,0-121.51,0Z"/><path class="cls-1" d="M136.5,247.52a22.9,22.9,0,1,1,0-45.79"/><path class="cls-1" d="M334,247.52a22.9,22.9,0,1,0,0-45.79"/><path class="cls-1" d="M292.32,222.29h-4.84a9.81,9.81,0,1,0-19.59,0h-4.84a14.64,14.64,0,1,1,29.27,0Zm-83.24,0h-4.85a9.81,9.81,0,1,0-19.59,0H179.8a14.65,14.65,0,1,1,29.28,0Z"/><path class="cls-2" d="M281.08,242.89c-19.38,0-35.15-12.76-35.15-28.45S261.7,186,281.08,186c12.23,0,23,5.08,29.31,12.76.63.79,1.25,1.63,1.83,2.52a24,24,0,0,1,4,13.17c0,15.69-15.77,28.45-35.15,28.45Zm-91.65,0c-19.39,0-35.15-12.76-35.15-28.45a24.14,24.14,0,0,1,4-13.15c.6-.92,1.24-1.78,1.89-2.59,6.31-7.65,17.07-12.71,29.27-12.71,19.38,0,35.15,12.76,35.15,28.45s-15.77,28.45-35.15,28.45Zm133.3-55.58a153.25,153.25,0,0,0-39.08-6.58c-.85,0-1.7-.08-2.57-.08h0c-12.86,0-24.33,5-31.75,12.86-10.87-7.51-22.06-3.8-28,.2-7.42-7.94-19-13.06-31.94-13.06-.87,0-1.72,0-2.57.08a153.25,153.25,0,0,0-39.08,6.58,5.45,5.45,0,0,0-3.77,5.2,5.2,5.2,0,0,0,2,4.18c3.16,2.39,3.59,8.34,3.43,12.7a29.09,29.09,0,0,0-.45,5.05c0,18.63,18.16,33.79,40.49,33.79s40.48-15.16,40.48-33.79a29.25,29.25,0,0,0-4.58-15.59c3.32-2.14,11.37-6,20-.25a29.27,29.27,0,0,0-4.73,15.84c0,18.63,18.16,33.79,40.48,33.79s40.49-15.16,40.49-33.79a29.09,29.09,0,0,0-.45-5.05c-.16-4.36.27-10.31,3.43-12.7a5.2,5.2,0,0,0,1.95-4.18,5.45,5.45,0,0,0-3.77-5.2Z"/><path class="cls-1" d="M136.91,142.47c12.83,11.92,42.17,18.39,65.33,4.79a80.09,80.09,0,0,1,14.83-7.14c-35.67-12.15-58.14-29.82-67-52.8-.12-.3-.21-.6-.31-.89a106.12,106.12,0,0,0-26,23.59c.77,11.1,3.92,23.87,13.14,32.45Z"/><path class="cls-1" d="M350.6,149.87c6.4-38.84-33.87-86.61-108-86.61-35.47,0-61.9,6.83-81.62,16.76.3.93.62,1.87,1,2.8,9.41,24.38,38.4,42.1,86.23,52.78,42.78,6.19,75.51,31.68,75.51,31.68l.06,0c12.62,10.07,24.17-1.52,26.8-17.45Z"/><path class="cls-1" d="M168.18,161.5c-15.72,0-28.17-4.22-37.24-12.67-8.36-7.79-12.59-18-14.58-28l-.33.56c-12.56,21.35,3.21,48.23,28,48,10.06-.1,21.82-2.37,35.07-8.51a101.62,101.62,0,0,1-10.9.64Z"/><path class="cls-1" d="M122.33,158.52c.74,3,0,29,0,29l23-23.55"/><path class="cls-1" d="M349.43,154.88c-.75,3-8.51,32.64-8.51,32.64l-28.35-29"/><rect class="cls-1" x="228.05" y="370.4" width="13.43" height="76.32"/><path class="cls-1" d="M278.41,634.3c-3.26.88-3.71,1.49-3.07,4.05,1-1.33,1.91-2.53,3.07-4.05Zm-27.34-1.07-.83-5.1-.57-.16-3.16,4.15,4.56,1.11Zm-16.59,34.68.53.4a21.25,21.25,0,0,0,1.92-2.11c3.63-5.2,7.59-10.22,10.67-15.73,1.87-3.35,2.43-7.46,3.39-11.27a2.68,2.68,0,0,0-.87-2.39,41.83,41.83,0,0,0-5.51-1.81c-5.65,10.41-8,21.64-10.13,32.91ZM347.3,629.59l.62.53c7.63-1.54,14.87-4,19.93-10.41,3.59-4.53,5.41-9.8,3.79-15.74-.6-2.16-1.75-2.93-3.83-2.09-1.82.73-3.88,1.6-5.07,3a120.53,120.53,0,0,0-9.22,12.59c-2.4,3.83-4.17,8-6.22,12.08Zm-52.43,34.28-.5-.42a53.44,53.44,0,0,0-4.49,5.06A35.1,35.1,0,0,0,284,686.57c-.51,7.66,1.4,14.64,7.84,19.23,6.12,4.36,13.43,5.45,20.78,4.44a28.85,28.85,0,0,0,10.51-3.48c5.48-3.25,7.07-9.08,7.7-15,.75-7,1.19-14.13,1.6-21.21a2.94,2.94,0,0,0-1.65-2.15c-4.24-1.65-8.52-3.23-12.86-4.58a41.66,41.66,0,0,0-14.81-2.09c-1.56.09-2.21.74-2.35,2-.42,3.93-.82,7.87-1,11.81-.05.93.5,2.56,1.07,2.7.88.23,2-.51,3-.92.32-.13.51-.54.78-.8l7.06-6.7c.34,1.25.87,2.09.68,2.73-.59,2-1,4.32-2.29,5.85-4.4,5.27-7.08,7.31-12.92,2.06a9.42,9.42,0,0,1-2.88-8c.18-2.88.42-5.75.64-8.62Zm-22-48.26c-.12-9.58-.65-16.39-3.71-22.77-1.84-3.84-3.86-7.4-8.46-8.56-7.91-2-15.07-.24-21.73,4.16-7.33,4.83-11,12-12.66,20.33-.94,4.71-.15,9.07,3,12.8s7,6,11.23,8c.42.2,1.44-.35,1.89-.84,1.5-1.65,2.76-3.53,4.32-5.12,2.25-2.29,3.77-2.1,5.61.54a9,9,0,0,1,1.35,2.78c.48,1.87.68,3.81,1.17,5.68.14.53.85,1.27,1.33,1.29,4.49.24,8.95.13,13.23-1.6a2.79,2.79,0,0,0,2-2.58c.5-5.58,1.07-11.15,1.36-14.1ZM146.75,672.69c-4.12,4-6.59,13.11-4.55,17.84,3.24-2.3,6.52-4.35,9.46-6.81a92.21,92.21,0,0,0,8-7.82,7.42,7.42,0,0,0,1.82-3.44A201,201,0,0,1,170.73,640a155.93,155.93,0,0,1,8.67-18.41c1.3-2.44,3.56-8.3,6.61-5.88.35.19-2.73-.13,0,0-.65,2.39-.89,8.25-2.11,10.29-4.85,8.08-8,13.62-10.72,22.54-1.54,5-2.84,10.06-4.24,15.1a2.52,2.52,0,0,0,0,1.41c10-11.83,13.85-33.81,17-49.34,1.48,13,.45,33.06-6.11,43.58,2.32,1.7,2.92,4,2.66,6.6-.35,3.49-.68,7-1.07,10.92,2-2.56,3.63-4.9,5.5-7,3.52-4,7.21-7.79,10.78-11.73,1.32-1.47,2.48-1.12,3.9-.15s1.19,2,.46,3.24a2.85,2.85,0,0,0-.56,1.42c.24,4.81-2,8.78-4.13,12.82a24.57,24.57,0,0,0-1.34,3.9l.54.34a46.54,46.54,0,0,0,4.22-3.7q7.26-8.07,14.35-16.31c1.27-1.46,2.52-1.77,4.07-.61,1.73,1.3,2,2.61.63,4.16-2.44,2.82-4.95,5.57-7.55,8.47a4.64,4.64,0,0,1,1.16.62c.59.6,1.52,1.31,1.5,1.95s-1,1.28-1.74,1.66c-1.53.81-2.54,1.74-2.1,3.69a19.12,19.12,0,0,1,0,3.47c3.43-1.69,6.64-3.19,9.76-4.85,2.37-1.27,4.68-2.67,6.91-4.16a3.72,3.72,0,0,0,1.54-2.23c2.25-17.49,3.82-23.49,10.35-38.78-2.37-1.42-4.87-2.73-7.17-4.33-5-3.45-8.89-7.46-10.47-13.81-1.68-6.72.38-12.46,3.14-18a33.38,33.38,0,0,1,7.15-9.25,31.84,31.84,0,0,1,9.05-5.79c4.81-2.08,9.8-3.28,15.3-2.35,9.05,1.51,14.2,7.14,17.26,15.14,3.34,8.7,3.64,17.8,3,27-.18,2.3-.33,4.6-.51,7.24,2.62-1.71,4.56-.43,5.76.42,2.59-.44,4.61-1.27,6.45-1a6.35,6.35,0,0,1,5.12,7.19c-.66,5.91-1.94,11.75-3,17.62a20.64,20.64,0,0,1-.74,2.48l.52.23c1.06-2,2.2-4,3.16-6,1.86-3.95,3.59-8,5.46-11.91.25-.53,1.25-1.25,1.56-1.11,1.22.55,2.78,1.16,3.35,2.21a7.72,7.72,0,0,1,.59,4.55c-.7,4.64-1.68,9.24-2.61,14.14,10.75.47,20.76,3.76,30.92,7.8.46-2.5.89-4.88,1.32-7.25,1.39-7.6,2.43-15.28,5.42-22.5.68-1.65.9-3.17-.67-4.83-1-1.1-1.3-3-1.7-4.65-.14-.61.16-1.84.52-2a3.71,3.71,0,0,1,2.52.2,15.09,15.09,0,0,1,2.54,2c1.19-2.27,2.73-4.86,4-7.59A53.45,53.45,0,0,1,361,599.57c2.73-2.31,5.89-3.48,9.32-1.66,3.77,2,5.29,5.6,5.71,9.57,1.16,11-5.06,21.61-17.7,25.49-3.93,1.21-7.78,2.68-12,2.36-.57-.05-1.6,1-1.78,1.74q-2.72,10.74-5.18,21.54c-.53,2.33-.62,4.75-1.16,7.08-.33,1.43.24,1.93,1.34,2.57,7.17,4.14,14.51,8,21.36,12.67,5.62,3.8,10.69,8.47,14,14.6a16.21,16.21,0,0,1,1.44,3.51c.41,1.54.18,2.78-1.91,2.84-1.37,0-3.43-1.11-3.11-2.22.66-2.31-.87-3.67-1.9-5.17-5-7.16-12.07-11.89-19.42-16.27-4-2.4-8.09-4.75-12.55-7.37-.31,2.73-.65,5-.8,7.24-.38,5.44-.37,10.94-1.09,16.33-.94,7-3.8,13.17-10.56,16.47A31.09,31.09,0,0,1,311,714.07c-8-.05-15.67-1.27-22.27-6.12a22.27,22.27,0,0,1-9.15-16.26c-.33-3.36.32-6.82.3-10.23a3.79,3.79,0,0,0-1.5-2.39,2,2,0,0,1-.72-2.67,257.48,257.48,0,0,0,10.45-35.6c.53-2.6.69-5.27,1-7.91l-.65-.41a27.33,27.33,0,0,0-4.34,3.2,76.09,76.09,0,0,0-12.5,17.92c-1.7,3.44-2.59,7.29-3.87,10.95-.79,2.23-1.61,4.46-2.48,6.66A71.65,71.65,0,0,1,253.59,691a3.72,3.72,0,0,1-6.41-1.12,2.21,2.21,0,0,1,.31-1.59c2.06-3.69,4.23-7.32,6.26-11,2.69-4.89,5.44-9.76,7.87-14.78,2.56-5.33,6-10.3,6.59-16.49.22-2.4,1.27-4.72,2-7.07.28-.94.21-1.92-1-1.5-4.53,1.58-9.1,1.24-13.54.59-.69,3.53-1.2,7-2,10.35-1.51,5.89-5.13,10.69-8.37,15.69a46,46,0,0,1-9.55,10.57,3.76,3.76,0,0,0-1.23,2.85,22.15,22.15,0,0,0,6,13.22c3.17,3.29,7,3.72,11.19,2.53.77-.22,1.52-.53,2.3-.8a3.83,3.83,0,0,1-3.22,4.51c-5.5,1.36-10-.28-13.77-4.38a27.94,27.94,0,0,1-7.06-14c-2.69,1.42-5,2.76-7.49,3.93a87.83,87.83,0,0,1-9,3.93,9.13,9.13,0,0,1-4.61-.06c-1.83-.38-2.84-2.41-2.4-4.46a38.41,38.41,0,0,1,1.32-3.91c-2.42.39-3.86,2.08-5.49,3.38-1.09.89-2,2.07-3.11,2.88a5.07,5.07,0,0,1-7.34-1.46c-1.47,1.36-2.84,2.81-4.39,4-2,1.55-5.12.8-6.54-1.27-.49-.71-1.41-1.12-2-1.76s-1.91-1.59-1.94-2.43c-.14-3.77,0-7.56.17-11.34.08-1.92.4-3.83.61-5.75l-.54-.23c-.91,1.57-1.89,3.11-2.72,4.72-2.69,5.18-5.33,10.39-8,15.58-.2.4-.5.75-.68,1.16-.63,1.44-.47,3.62-3.22,2.8-2.48-.74-3.12-1.5-3-4.67-3.49,2.8-6.87,5.67-10.43,8.29a12.11,12.11,0,0,1-4.83,2.19c-5.9,1.07-8.17-3.85-8-8.36,0-1,.13-1.92.23-3.32-3.07,2.68-5.81,5.14-8.62,7.51-2.6,2.18-5,2.49-7.33.9a15,15,0,0,1-2.28-2.41c-2.26,1.69-4.59,3.39-6.86,5.18a2.18,2.18,0,0,0-.72,1.48c-.09,3.5,3.13,8.41,6.48,9.46,1.47.47,3.2.1,4.8.22a10.11,10.11,0,0,1,2.1.58,6.17,6.17,0,0,1-.74,2.09c-1.56,1.8-3.68,1.48-5.64,1a15.36,15.36,0,0,1-11-9.34c-.16-.34-.33-.68-.5-1a3.51,3.51,0,0,0-.4-.35c-2.27,1.46-4.56,3.1-7,4.47-3.49,2-7,4.11-11.16,4.3-2.44.12-4.85-.06-6.71-1.79-.6-.57-.61-1.78-.88-2.7.87-.15,1.92-.69,2.59-.39,3,1.36,5.77.68,8.32-.8,4.39-2.54,8.65-5.33,12.92-8.08a2,2,0,0,0,.72-1.45c.05-6.56,0-13.13-.28-19.95-.7,1.2-1.34,2.43-2.09,3.58-1.87,2.88-3.74,5.75-5.71,8.56-1.13,1.62-2.66,1.76-4.56,1.18s-3.41-1.59-3.24-3.64a39.9,39.9,0,0,1,1.45-8.28c2.56-8.41,5.41-16.73,8-25.13,1.28-4.12,2.3-8.33,3.38-12.51a26.35,26.35,0,0,0,.33-3.36c-1.51,1.13-2.71,1.93-3.79,2.86C92.45,639.5,87,644.6,82.84,651c-2.76,4.29-6.06,8.29-8.45,12.77-2.27,4.24-3.32,9.13-5.52,13.41-3.52,6.83-7.51,13.41-11.37,20.06-.77,1.31-3.4,1.42-4.74.21-1.16-1.05-1.56-2.07-.52-3.83,3.92-6.59,7.27-13.53,11.31-20,4.59-7.4,6.69-15.53,8.7-23.84a154.57,154.57,0,0,0,4.6-31.68c.16-5.33-.13-10.72-2.67-15.74-2.42-4.78-6.57-6.77-11.42-7.69-4.33-.83-8.58,0-12.81,1.06C37.62,598.85,27.16,605,19.2,615c-4.73,6-7.74,12.86-6.75,20.55,1.4,10.87,5.06,17.26,17.79,18.41a31.33,31.33,0,0,0,7.16-.41c5.83-.84,11.72-1.51,17.12-4.23a12.76,12.76,0,0,1,3.46-.89c2.55-.46,3.75.51,4.13,3.16-9.92,4.19-20.11,7.18-31,6.57-6-.33-11.71-2.2-16.2-6.28-3.9-3.54-5.81-8.46-7.09-13.51a27,27,0,0,1,4-22.27,51.25,51.25,0,0,1,8.36-10.26c10.22-9.05,21.92-15.3,35.81-16.31,7.39-.54,14.15,1.48,19.33,7.1,3.72,4.05,5.22,9.18,6.08,14.47,1.13,6.94.29,13.89-.59,20.76-.75,5.9-2.11,11.72-3.28,18,2.25-2.94,4.07-5.77,6.34-8.18,4.32-4.61,8.82-9.06,13.4-13.41a5.26,5.26,0,0,1,6.64-.75c2.35,1.35,3.81,3.39,3.49,6.05a59.46,59.46,0,0,1-2,10.07c-2.89,9.57-6,19.08-9,28.63,0,.1.08.26.22.63,1.69-2.88,3.22-5.68,4.94-8.34.88-1.35,1.51-3.16,3.85-2.83a4.6,4.6,0,0,1,4.26,4,69.48,69.48,0,0,1,.41,10.21c0,3.92-.34,7.84-.54,12.33,6.34-4.07,11.42-8.22,14-14.81a32.74,32.74,0,0,1,3.17-5.4c1.18-1.82,2.76-1.82,4.46-.77s2.31,2.28,1.17,4.1c-1.85,3-3.74,5.9-5.5,8.91-.88,1.5-1.53,3.13-2.28,4.7l.55.41c2.56-2.21,5.25-4.28,7.65-6.65,3.55-3.51,6.8-7.32,10.39-10.79a23.51,23.51,0,0,1,6.16-4.36c.94-.46,2.71.33,3.86,1a2.91,2.91,0,0,1,.92,2.48,48.61,48.61,0,0,1-1.59,6.48c-.34,1.15-2.56,1.36-4.17.43a12.68,12.68,0,0,1-1.61-1.32Z"/><path class="cls-1" d="M401.64,667.75l-8.78,4.82c-3,1.65-5.59,1-7.89-1.33a5.94,5.94,0,0,1-.69-1.15c-2.39,1.91-4.34,3.66-6.49,5.13-3.36,2.29-5.52,2.35-8.23-1.67-.67.39-1.36.78-2,1.19-2.46,1.48-4.32,1.37-6.35-.4-1.48-1.29-1.87-3.51-.72-5.78s2.53-4.41,3.78-6.62a9.16,9.16,0,0,0,.5-1.57c-2,.22-3.84.5-5.67.58-3.29.16-6.27-1.81-6.74-4.66a4,4,0,0,1,.83-3.18c3.51-3.14,7.07-6.25,11.59-8,3.27-1.23,6-.2,6.75,2.54.32,1.19.08,2-1.29,1.95-4.76-.1-7.62,3.16-10.81,6,3.46.05,7.27-1.35,9.69,2.2s.2,6.7-1.51,9.79l.45.53c3-2.23,6-4.38,8.92-6.68,4.05-3.19,8-6.48,12-9.76,1.53-1.27,2.78-.67,3.95.47,1.48,1.43,1.61,5.61.57,7.41-1.45,2.46-2.65,5.07-4,7.62l.63.62c3.46-2.12,6.94-4.2,10.36-6.38,1.64-1,3.14-2.29,4.75-3.37,2.86-1.94,4-1.63,5.58,1.43a13.15,13.15,0,0,1,.63,1.75c1.9-1,3.76-2.08,5.73-2.93,3.11-1.34,6.29-.61,7.73,2.42,3,6.21,8.35,7.48,14.21,7.13,6.63-.39,13.2-1.57,19.8-2.4,1.14-.15,2.28-.26,3.68-.42-.64,2.64-1.56,4.74-4.15,5.27-7.39,1.5-14.78,3.37-22.39,2.54-6.2-.68-11.53-3-14.56-9a2.28,2.28,0,0,0-2.16-.5,44.32,44.32,0,0,0-5.06,2.86c-1.78,1.09-3.51,2.26-5.26,3.39-2.66,1.73-3.66,1.64-6.06-.54-.44-.4-.83-.84-1.31-1.33Z"/><path class="cls-1" d="M332.82,644.89a12.74,12.74,0,0,1-9.56,5.16,17.92,17.92,0,0,1-10.4-1.91c-6-3.21-7.08-12.93-.9-17.69,3.23-2.48,10-.56,11.52,3.27a3.18,3.18,0,0,1-.21,2.51c-.25.39-1.44.33-2.18.23a3.15,3.15,0,0,1-1.48-.83c-2.54-2.23-3.47-2.09-5.23.84-.26.45-.53.9-.78,1.36-2.08,3.93-.63,7.45,3.78,7.76,3.72.26,7.51-.68,11.27-1a29.4,29.4,0,0,1,4.17.28Z"/><path class="cls-1" d="M138.68,622.54c-2.1-.54-4.21-1.06-6.3-1.62-.33-.09-.78-.34-.87-.62-.34-1.06-.56-2.17-.83-3.26.95-.08,2.06-.5,2.83-.17a25.42,25.42,0,0,1,4.87,2.89c.52.38.59,1.37.86,2.07-.18.24-.38.47-.56.71Z"/><path class="cls-3" d="M5.41,557.13l15.12-40.5h9l15.06,40.5H32.84l-2.45-7.93H19.61l-2.39,7.93ZM25,528.21l-3.77,13.58h7.37Z"/><path class="cls-3" d="M61.87,557.13v-40.5H73v30.8H91.36v9.7Z"/><path class="cls-3" d="M109.67,557.13v-40.5H120.8v30.8h18.37v9.7Z"/><path class="cls-3" d="M212.86,526.33H201.23v30.8H190.1v-30.8H178.41v-9.7h34.45Z"/><path class="cls-3" d="M267,516.63v40.5H255.87V541.27H242.29v15.86H231.17v-40.5h11.12v15h13.58v-15Z"/><path class="cls-3" d="M288.21,557.13v-40.5h11.12v40.5Z"/><path class="cls-3" d="M331.68,537.22v19.91H320.55v-40.5h8.67l16.26,20.59V516.63H356.6v40.5h-8.84Z"/><path class="cls-3" d="M403,553.82a12.49,12.49,0,0,1-8.84,3.59,15.61,15.61,0,0,1-7.13-1.68,19.52,19.52,0,0,1-5.9-4.53,22.1,22.1,0,0,1-5.51-14.66,20.89,20.89,0,0,1,1.51-8,19.48,19.48,0,0,1,10.41-10.66,19,19,0,0,1,7.7-1.58,19.66,19.66,0,0,1,4.91.6,17.06,17.06,0,0,1,4.33,1.77,16.37,16.37,0,0,1,3.57,2.8,14.72,14.72,0,0,1,2.59,3.68l-8.26,6.33a8.93,8.93,0,0,0-3.11-3.85,7.61,7.61,0,0,0-4.42-1.46,6.49,6.49,0,0,0-3.17.8,7.82,7.82,0,0,0-2.51,2.23,10.94,10.94,0,0,0-1.66,3.39,15.85,15.85,0,0,0,0,8.64,10.19,10.19,0,0,0,1.69,3.34,7.7,7.7,0,0,0,2.59,2.17,7.3,7.3,0,0,0,3.34.77,8.29,8.29,0,0,0,4-1,12.37,12.37,0,0,0,3.57-3h-7.13v-8h16.66v21.56H403Z"/><path class="cls-3" d="M456.48,529.87a29.63,29.63,0,0,0-3.54-1.83,28.89,28.89,0,0,0-3.45-1.28,12.42,12.42,0,0,0-3.74-.6,5.22,5.22,0,0,0-2.36.45,1.6,1.6,0,0,0-.88,1.54,1.8,1.8,0,0,0,.51,1.32,4.91,4.91,0,0,0,1.48.94,18.89,18.89,0,0,0,2.37.82c.93.27,2,.59,3.16,1a40.6,40.6,0,0,1,5.05,1.89,15.52,15.52,0,0,1,3.85,2.42,9.5,9.5,0,0,1,2.46,3.39,12.53,12.53,0,0,1,.85,4.85,12.78,12.78,0,0,1-1.34,6.13,11,11,0,0,1-3.54,4,15,15,0,0,1-5,2.14,24.4,24.4,0,0,1-5.56.65,31,31,0,0,1-4.56-.34,39.6,39.6,0,0,1-4.65-1,41.44,41.44,0,0,1-4.45-1.48,28.7,28.7,0,0,1-4-1.94l4.8-9.76a33.17,33.17,0,0,0,4.16,2.23,29.79,29.79,0,0,0,4.14,1.54,16.24,16.24,0,0,0,4.7.68,4.84,4.84,0,0,0,2.54-.48,1.49,1.49,0,0,0,.71-1.28,1.86,1.86,0,0,0-.71-1.46,6.44,6.44,0,0,0-2-1c-.84-.31-1.79-.61-2.88-.92s-2.23-.66-3.45-1.08a30.08,30.08,0,0,1-4.62-2,12.67,12.67,0,0,1-3.2-2.39,8.75,8.75,0,0,1-1.85-3.06A11.85,11.85,0,0,1,431,530a13.54,13.54,0,0,1,1.23-5.93,12.08,12.08,0,0,1,3.33-4.28,15.06,15.06,0,0,1,4.82-2.6,18.39,18.39,0,0,1,5.74-.88,21.41,21.41,0,0,1,4.33.43,33,33,0,0,1,4.08,1.08,38.17,38.17,0,0,1,3.68,1.43c1.14.51,2.17,1,3.08,1.45Z"/></svg>