<svg id="Layer_1" data-name="Layer 1" xmlns="http://www.w3.org/2000/svg" viewBox="0 0 720 216"><defs><style>.cls-1{fill:#231f20;}.cls-2{fill:#1b75bb;}.cls-3{fill:#1c75bc;}</style></defs><path class="cls-1" d="M185.28,211.85H32.83A27.66,27.66,0,0,1,5.2,184.22V31.78A27.66,27.66,0,0,1,32.83,4.15H185.28a27.66,27.66,0,0,1,27.63,27.63V184.22A27.66,27.66,0,0,1,185.28,211.85ZM32.83,13.52A18.28,18.28,0,0,0,14.58,31.78V184.22a18.28,18.28,0,0,0,18.25,18.26H185.28a18.28,18.28,0,0,0,18.26-18.26V31.78a18.28,18.28,0,0,0-18.26-18.26Z"/><path class="cls-1" d="M109.28,190.1c-25,0-45.24-21-45.24-46.9h5.85c0,22.63,17.67,41,39.39,41s39.38-18.41,39.38-41h5.86C154.52,169.06,134.23,190.1,109.28,190.1Z"/><path class="cls-1" d="M112.79,159v-4.54h26.1a30.7,30.7,0,0,0,1.41-7.27h-62a30.7,30.7,0,0,0,1.41,7.27h25.87V159h-24A31.11,31.11,0,0,0,137,159Z"/><path class="cls-1" d="M105.54,130.86v4.53H79.67a30.78,30.78,0,0,0-1.41,7.28h62a30.78,30.78,0,0,0-1.41-7.28h-26.1v-4.53H137a31.11,31.11,0,0,0-55.48,0Z"/><path class="cls-1" d="M64.19,114.45a10.46,10.46,0,0,1,0-20.91"/><path class="cls-1" d="M154.37,114.45a10.46,10.46,0,0,0,0-20.91"/><path class="cls-1" d="M135.33,102.93h-2.21a4.48,4.48,0,1,0-8.94,0H122a6.68,6.68,0,1,1,13.36,0Zm-38,0H95.12a4.48,4.48,0,1,0-9,0H84a6.69,6.69,0,1,1,13.37,0Z"/><path class="cls-2" d="M130.2,112.33c-8.85,0-16-5.82-16-13s7.2-13,16-13a17.29,17.29,0,0,1,13.38,5.83c.29.36.57.75.84,1.15a11,11,0,0,1,1.83,6c0,7.17-7.2,13-16.05,13Zm-41.84,0c-8.85,0-16-5.82-16-13a11,11,0,0,1,1.82-6c.28-.42.57-.81.86-1.18a17.3,17.3,0,0,1,13.37-5.81c8.84,0,16,5.83,16,13s-7.2,13-16,13ZM149.22,87a70,70,0,0,0-17.84-3c-.39,0-.78,0-1.18,0h0a20,20,0,0,0-14.49,5.87,11.15,11.15,0,0,0-12.77.09,20,20,0,0,0-14.58-6c-.4,0-.79,0-1.18,0a70,70,0,0,0-17.84,3,2.48,2.48,0,0,0-1.72,2.37,2.36,2.36,0,0,0,.89,1.91c1.44,1.09,1.64,3.81,1.57,5.8a12.53,12.53,0,0,0-.21,2.3c0,8.51,8.29,15.43,18.49,15.43s18.48-6.92,18.48-15.43a13.36,13.36,0,0,0-2.09-7.11,8.09,8.09,0,0,1,9.13-.12,13.35,13.35,0,0,0-2.16,7.23c0,8.51,8.29,15.43,18.48,15.43s18.49-6.92,18.49-15.43a13.47,13.47,0,0,0-.21-2.3c-.07-2,.12-4.71,1.57-5.8a2.39,2.39,0,0,0,.89-1.91A2.48,2.48,0,0,0,149.22,87Z"/><path class="cls-1" d="M64.38,66.49c5.86,5.44,19.25,8.39,29.83,2.18A36.44,36.44,0,0,1,101,65.41C84.69,59.87,74.43,51.8,70.4,41.3c-.05-.13-.09-.27-.14-.4A48.56,48.56,0,0,0,58.38,51.67c.35,5.07,1.79,10.9,6,14.82Z"/><path class="cls-1" d="M161.94,69.86c2.92-17.73-15.46-39.54-49.29-39.54-16.19,0-28.26,3.12-37.26,7.65.13.43.28.86.45,1.28,4.29,11.13,17.52,19.22,39.36,24.1,19.53,2.82,34.48,14.46,34.48,14.46l0,0c5.77,4.6,11-.69,12.24-8Z"/><path class="cls-1" d="M78.66,75.17c-7.18,0-12.87-1.92-17-5.78A23.34,23.34,0,0,1,55,56.6l-.15.25A14.59,14.59,0,0,0,67.62,78.77a38.82,38.82,0,0,0,16-3.89,45.52,45.52,0,0,1-5,.29Z"/><path class="cls-1" d="M57.72,73.81c.34,1.37,0,13.25,0,13.25L68.23,76.3"/><path class="cls-1" d="M161.41,72.15c-.34,1.36-3.89,14.91-3.89,14.91L144.58,73.81"/><rect class="cls-1" x="105.99" y="170.55" width="6.13" height="34.84"/><path class="cls-1" d="M530.56,131.63c-3.26.89-3.71,1.5-3.08,4.06l3.08-4.06Zm-27.35-1.07-.83-5.1-.57-.15-3.16,4.15,4.56,1.1Zm-16.6,34.69.53.41a21.14,21.14,0,0,0,1.92-2.11c3.63-5.2,7.6-10.22,10.68-15.74,1.87-3.35,2.43-7.46,3.39-11.27a2.68,2.68,0,0,0-.87-2.39,41.51,41.51,0,0,0-5.52-1.82c-5.64,10.42-8,21.65-10.13,32.92Zm112.86-38.32.62.52c7.63-1.53,14.88-4,19.93-10.41,3.6-4.53,5.42-9.8,3.79-15.74-.59-2.17-1.74-2.94-3.83-2.09-1.82.73-3.87,1.6-5.06,3a121.81,121.81,0,0,0-9.23,12.6c-2.39,3.83-4.17,8-6.22,12.09ZM547,161.21l-.49-.41a53.6,53.6,0,0,0-4.5,5,35.14,35.14,0,0,0-5.91,18.08c-.51,7.65,1.4,14.63,7.84,19.22,6.13,4.37,13.43,5.46,20.79,4.45a28.68,28.68,0,0,0,10.51-3.49c5.48-3.25,7.08-9.08,7.7-15,.75-7.06,1.19-14.15,1.6-21.23a3,3,0,0,0-1.64-2.15c-4.24-1.65-8.53-3.23-12.87-4.58a41.89,41.89,0,0,0-14.81-2.09c-1.56.09-2.21.74-2.35,2-.43,3.93-.82,7.87-1,11.82-.05.93.5,2.56,1.07,2.7.88.23,2-.51,3-.92.31-.13.5-.54.77-.8l7.07-6.71c.34,1.25.87,2.1.68,2.74-.59,2-1,4.32-2.29,5.85-4.41,5.27-7.09,7.31-12.93,2.06a9.43,9.43,0,0,1-2.88-8c.18-2.87.42-5.74.64-8.62Zm-22-48.27c-.12-9.58-.65-16.4-3.7-22.78-1.84-3.84-3.87-7.4-8.46-8.56-7.92-2-15.08-.24-21.74,4.16-7.33,4.84-11,12-12.66,20.34-.94,4.71-.15,9.07,3,12.8s7,6,11.23,8c.42.2,1.45-.36,1.9-.84,1.5-1.65,2.76-3.54,4.32-5.12,2.25-2.3,3.77-2.11,5.61.53a8.9,8.9,0,0,1,1.35,2.79c.48,1.86.69,3.81,1.17,5.67a2,2,0,0,0,1.33,1.3c4.5.24,9,.12,13.24-1.61a2.81,2.81,0,0,0,2-2.58c.5-5.58,1.07-11.15,1.35-14.1ZM398.86,170c-4.12,4-6.6,13.11-4.55,17.84,3.23-2.3,6.51-4.35,9.46-6.81a90.81,90.81,0,0,0,8-7.82,7.32,7.32,0,0,0,1.82-3.44,201.23,201.23,0,0,1,9.26-32.53,157.44,157.44,0,0,1,8.67-18.41c1.3-2.44,3.56-8.31,6.61-5.88.35.18-2.73-.13,0,0-.65,2.39-.89,8.25-2.11,10.29-4.85,8.08-8,13.63-10.73,22.55-1.54,5-2.84,10.06-4.23,15.1a2.47,2.47,0,0,0,0,1.42c10-11.84,13.85-33.82,17-49.36,1.48,13,.45,33.07-6.11,43.6,2.32,1.69,2.92,4,2.66,6.6-.35,3.49-.68,7-1.07,10.91,2-2.56,3.63-4.89,5.5-7,3.53-4,7.22-7.8,10.78-11.74,1.33-1.47,2.49-1.12,3.9-.15s1.19,2,.47,3.25a2.93,2.93,0,0,0-.57,1.41c.25,4.81-2,8.79-4.13,12.83a25.62,25.62,0,0,0-1.34,3.9l.54.34a44,44,0,0,0,4.22-3.7c4.85-5.38,9.62-10.84,14.36-16.32,1.27-1.46,2.52-1.76,4.07-.61,1.73,1.3,2,2.62.63,4.17-2.44,2.81-5,5.57-7.55,8.47a4.49,4.49,0,0,1,1.16.61c.59.61,1.52,1.32,1.5,2s-1,1.28-1.74,1.66c-1.54.81-2.54,1.74-2.11,3.69a18.05,18.05,0,0,1,0,3.47c3.43-1.69,6.64-3.19,9.76-4.85a80.69,80.69,0,0,0,6.91-4.17,3.63,3.63,0,0,0,1.54-2.22c2.25-17.5,3.82-23.5,10.36-38.8-2.38-1.42-4.88-2.72-7.18-4.33-5-3.45-8.88-7.46-10.47-13.82-1.68-6.71.39-12.46,3.14-18a33.38,33.38,0,0,1,7.15-9.25,31.89,31.89,0,0,1,9.06-5.79c4.8-2.08,9.8-3.28,15.3-2.36,9.06,1.52,14.21,7.16,17.27,15.15,3.33,8.7,3.63,17.81,3,27-.18,2.3-.33,4.6-.52,7.25,2.63-1.71,4.57-.43,5.77.41,2.59-.43,4.61-1.27,6.45-1a6.36,6.36,0,0,1,5.12,7.2c-.66,5.91-1.93,11.75-3,17.62a22,22,0,0,1-.73,2.48l.52.23c1-2,2.19-4,3.16-6,1.86-4,3.58-8,5.46-11.92.25-.53,1.24-1.25,1.55-1.11,1.23.56,2.79,1.16,3.35,2.22a7.8,7.8,0,0,1,.6,4.55c-.7,4.64-1.69,9.24-2.61,14.14,10.74.48,20.77,3.76,30.93,7.8.45-2.5.89-4.87,1.32-7.25,1.38-7.6,2.43-15.28,5.42-22.5.68-1.65.9-3.18-.68-4.83-1-1.1-1.29-3-1.69-4.66-.15-.61.15-1.84.52-1.95a3.61,3.61,0,0,1,2.52.2,14.54,14.54,0,0,1,2.54,2c1.19-2.27,2.73-4.86,4-7.59a53.39,53.39,0,0,1,14.07-19.19c2.72-2.3,5.88-3.48,9.32-1.66,3.77,2,5.29,5.6,5.71,9.58,1.16,11-5.07,21.61-17.71,25.5-3.93,1.2-7.78,2.67-12,2.35-.57,0-1.6,1-1.78,1.74Q594,145.15,591.5,156c-.53,2.32-.62,4.75-1.16,7.07-.33,1.43.23,1.94,1.34,2.58,7.17,4.14,14.52,8,21.36,12.67,5.63,3.81,10.7,8.47,14,14.6a15.64,15.64,0,0,1,1.45,3.52c.41,1.54.18,2.78-1.91,2.84-1.37,0-3.43-1.11-3.12-2.22.67-2.32-.86-3.68-1.9-5.17-5-7.17-12.07-11.9-19.42-16.28-4-2.4-8.09-4.76-12.55-7.37-.31,2.73-.65,5-.81,7.24-.38,5.44-.36,10.94-1.09,16.34-.94,7-3.79,13.16-10.56,16.47a31.06,31.06,0,0,1-14.06,3.18c-8-.05-15.68-1.27-22.28-6.12A22.27,22.27,0,0,1,531.68,189c-.33-3.36.32-6.82.3-10.23a3.79,3.79,0,0,0-1.5-2.39,2,2,0,0,1-.72-2.67,258,258,0,0,0,10.45-35.61c.53-2.6.7-5.28,1-7.92l-.65-.41a28.5,28.5,0,0,0-4.34,3.21,76.42,76.42,0,0,0-12.51,17.92c-1.7,3.45-2.58,7.3-3.87,10.95q-1.18,3.36-2.47,6.67a71.93,71.93,0,0,1-11.67,19.74,3.71,3.71,0,0,1-6.41-1.12,2.21,2.21,0,0,1,.31-1.59c2.06-3.69,4.23-7.32,6.26-11,2.69-4.9,5.45-9.76,7.87-14.79,2.57-5.33,6-10.3,6.59-16.49.22-2.4,1.28-4.72,2-7.07.28-.94.21-1.92-1-1.51-4.53,1.58-9.11,1.24-13.54.59-.7,3.54-1.21,7-2.06,10.36-1.51,5.9-5.13,10.7-8.37,15.69a46.26,46.26,0,0,1-9.55,10.58,3.79,3.79,0,0,0-1.24,2.85,22.22,22.22,0,0,0,6,13.23c3.17,3.29,7,3.72,11.19,2.53.77-.22,1.52-.53,2.3-.81a3.82,3.82,0,0,1-3.22,4.51c-5.5,1.37-10-.28-13.77-4.38a28,28,0,0,1-7.07-14c-2.68,1.42-5,2.76-7.49,3.93a85.68,85.68,0,0,1-9,3.93,9.24,9.24,0,0,1-4.61-.05c-1.83-.39-2.84-2.42-2.4-4.47a38.41,38.41,0,0,1,1.32-3.91c-2.42.39-3.87,2.07-5.49,3.38-1.1.89-2,2.07-3.11,2.88a5.08,5.08,0,0,1-7.35-1.46c-1.47,1.36-2.84,2.81-4.38,4-2,1.55-5.13.8-6.55-1.27-.49-.71-1.41-1.12-2-1.75s-1.92-1.6-1.94-2.44c-.14-3.78,0-7.57.17-11.35.08-1.92.4-3.83.61-5.74l-.54-.24c-.92,1.57-1.89,3.11-2.73,4.72-2.68,5.18-5.32,10.39-8,15.59-.21.4-.5.75-.68,1.16-.64,1.44-.48,3.62-3.23,2.8-2.48-.73-3.12-1.5-3-4.67-3.49,2.8-6.87,5.67-10.43,8.29a12.17,12.17,0,0,1-4.83,2.19c-5.91,1.07-8.18-3.85-8-8.36,0-1,.13-1.92.22-3.32-3.07,2.69-5.81,5.14-8.62,7.51-2.59,2.18-5,2.49-7.33.91a15.56,15.56,0,0,1-2.28-2.42c-2.26,1.69-4.59,3.4-6.86,5.18a2.14,2.14,0,0,0-.72,1.48c-.09,3.5,3.13,8.42,6.47,9.47,1.48.47,3.21.1,4.81.21a11.3,11.3,0,0,1,2.1.58,6.15,6.15,0,0,1-.74,2.1c-1.55,1.8-3.68,1.48-5.64,1a15.39,15.39,0,0,1-11-9.35c-.15-.34-.32-.67-.5-1,0-.06-.11-.1-.4-.36-2.27,1.47-4.55,3.1-7,4.47-3.5,2-7,4.11-11.17,4.31-2.44.11-4.85-.06-6.71-1.79-.6-.57-.61-1.78-.89-2.7.88-.15,1.93-.69,2.59-.39,3,1.36,5.78.68,8.33-.8,4.4-2.55,8.65-5.33,12.92-8.08a2,2,0,0,0,.72-1.45c0-6.57,0-13.14-.28-20-.69,1.19-1.34,2.42-2.09,3.58-1.87,2.87-3.74,5.75-5.7,8.56-1.14,1.62-2.67,1.76-4.57,1.18s-3.41-1.59-3.24-3.64a39.78,39.78,0,0,1,1.45-8.28c2.56-8.41,5.41-16.74,8-25.14,1.28-4.12,2.31-8.33,3.38-12.52a23,23,0,0,0,.33-3.35c-1.51,1.13-2.7,1.92-3.78,2.85-5.69,4.92-11.18,10-15.3,16.42-2.76,4.29-6.06,8.29-8.46,12.78-2.26,4.24-3.32,9.12-5.52,13.41-3.51,6.83-7.51,13.41-11.37,20.06-.77,1.32-3.4,1.43-4.74.21-1.16-1.05-1.56-2.07-.52-3.83,3.92-6.59,7.27-13.53,11.31-20,4.59-7.4,6.7-15.54,8.71-23.85a154,154,0,0,0,4.59-31.69c.17-5.34-.12-10.72-2.66-15.74-2.43-4.79-6.57-6.77-11.42-7.7-4.34-.83-8.59,0-12.83,1.06-12.32,3.17-22.79,9.33-30.75,19.33-4.74,6-7.74,12.86-6.75,20.55,1.4,10.88,5.06,17.27,17.79,18.42a31.33,31.33,0,0,0,7.16-.41c5.84-.84,11.73-1.51,17.13-4.23a12.85,12.85,0,0,1,3.46-.89c2.55-.46,3.75.51,4.14,3.16-9.93,4.19-20.13,7.18-31,6.57-6-.33-11.71-2.2-16.21-6.28-3.89-3.54-5.81-8.46-7.08-13.51a27.11,27.11,0,0,1,4-22.28,51.3,51.3,0,0,1,8.37-10.26c10.22-9.06,21.93-15.31,35.82-16.32,7.39-.53,14.16,1.48,19.34,7.11,3.72,4,5.22,9.18,6.08,14.47,1.13,6.94.29,13.89-.59,20.77-.75,5.9-2.11,11.72-3.28,18,2.25-2.94,4.07-5.77,6.34-8.19,4.32-4.6,8.82-9.05,13.4-13.4a5.25,5.25,0,0,1,6.65-.75c2.34,1.35,3.8,3.38,3.49,6a60.16,60.16,0,0,1-2,10.06c-2.88,9.59-6,19.1-9,28.64,0,.11.09.27.22.64,1.69-2.88,3.22-5.68,4.95-8.35.88-1.35,1.51-3.16,3.84-2.83a4.62,4.62,0,0,1,4.27,4,69.48,69.48,0,0,1,.4,10.21c0,3.92-.33,7.84-.54,12.33,6.35-4.07,11.43-8.22,14-14.81a32.39,32.39,0,0,1,3.18-5.4c1.17-1.82,2.76-1.83,4.46-.77s2.31,2.28,1.17,4.1c-1.86,2.95-3.74,5.9-5.51,8.91-.88,1.5-1.53,3.13-2.28,4.7l.56.41c2.55-2.21,5.24-4.28,7.64-6.65,3.56-3.51,6.81-7.32,10.39-10.8a23.73,23.73,0,0,1,6.17-4.36c.94-.45,2.71.33,3.86,1a2.88,2.88,0,0,1,.92,2.47,48.37,48.37,0,0,1-1.59,6.49c-.34,1.15-2.56,1.36-4.17.43a12,12,0,0,1-1.61-1.32Z"/><path class="cls-1" d="M653.83,165.09c-2.94,1.62-5.87,3.21-8.79,4.83s-5.59,1-7.88-1.33a5.79,5.79,0,0,1-.7-1.15c-2.39,1.91-4.34,3.66-6.49,5.12-3.36,2.3-5.52,2.36-8.23-1.67-.67.4-1.37.79-2,1.2-2.45,1.48-4.31,1.37-6.35-.41-1.48-1.29-1.86-3.5-.72-5.77s2.53-4.41,3.79-6.63a9.47,9.47,0,0,0,.5-1.57c-2,.22-3.85.5-5.67.59-3.3.15-6.27-1.82-6.75-4.66a4.05,4.05,0,0,1,.83-3.19c3.51-3.14,7.08-6.25,11.59-8,3.27-1.23,6-.19,6.76,2.55.31,1.19.08,2-1.29,2-4.76-.1-7.63,3.16-10.81,6,3.45,0,7.27-1.35,9.68,2.21s.21,6.69-1.5,9.78c.15.18.29.36.44.53,3-2.22,6-4.38,8.93-6.68,4-3.19,8-6.47,12-9.76,1.53-1.27,2.78-.67,3.95.47,1.48,1.43,1.62,5.62.57,7.41-1.44,2.47-2.65,5.08-4,7.63l.63.61c3.46-2.12,6.94-4.2,10.37-6.37,1.64-1,3.14-2.29,4.75-3.38,2.86-1.94,4-1.63,5.58,1.43a14.72,14.72,0,0,1,.63,1.75c1.9-1,3.76-2.07,5.73-2.92,3.11-1.35,6.29-.61,7.73,2.41,3,6.21,8.36,7.49,14.22,7.14,6.63-.4,13.21-1.58,19.8-2.41,1.14-.14,2.28-.26,3.69-.41-.65,2.64-1.56,4.74-4.16,5.26-7.39,1.5-14.78,3.38-22.4,2.55-6.2-.68-11.53-3.05-14.56-9.06a2.32,2.32,0,0,0-2.16-.5,44.4,44.4,0,0,0-5.06,2.87c-1.78,1.09-3.51,2.25-5.26,3.39-2.67,1.72-3.66,1.64-6.06-.55-.44-.39-.83-.84-1.31-1.33Z"/><path class="cls-1" d="M585,142.23a12.73,12.73,0,0,1-9.56,5.16,17.85,17.85,0,0,1-10.4-1.92c-6-3.2-7.08-12.93-.9-17.68,3.23-2.49,10-.57,11.52,3.27a3.11,3.11,0,0,1-.21,2.5c-.25.4-1.44.33-2.18.23a3.06,3.06,0,0,1-1.48-.83c-2.54-2.22-3.47-2.09-5.23.85-.27.44-.53.89-.78,1.36-2.08,3.93-.63,7.45,3.79,7.76,3.71.26,7.5-.68,11.27-1a29.27,29.27,0,0,1,4.16.28Z"/><path class="cls-1" d="M390.78,119.87c-2.1-.54-4.2-1.06-6.3-1.62-.33-.09-.78-.34-.86-.61-.35-1.07-.57-2.18-.84-3.27,1-.08,2.06-.5,2.84-.17a26,26,0,0,1,4.87,2.89c.52.38.59,1.37.86,2.08l-.57.7Z"/><path class="cls-3" d="M258.66,56.28l15-40.3h9l15,40.3H286l-2.44-7.89H272.79l-2.38,7.89Zm19.53-28.77L274.44,41h7.32Z"/><path class="cls-3" d="M314.85,56.28V16h11.07V46.63H344.2v9.65Z"/><path class="cls-3" d="M362.42,56.28V16h11.07V46.63h18.28v9.65Z"/><path class="cls-3" d="M465.11,25.63H453.53V56.28H442.46V25.63H430.82V16h34.29Z"/><path class="cls-3" d="M519,16v40.3H507.91V40.5H494.4V56.28H483.33V16H494.4V30.85h13.51V16Z"/><path class="cls-3" d="M540.09,56.28V16h11.07v40.3Z"/><path class="cls-3" d="M583.34,36.47V56.28H572.28V16h8.62l16.18,20.49V16h11.07v40.3h-8.8Z"/><path class="cls-3" d="M654.35,53a12.41,12.41,0,0,1-8.79,3.58,15.62,15.62,0,0,1-7.1-1.68,19.33,19.33,0,0,1-5.87-4.51,21.94,21.94,0,0,1-5.48-14.59,20.68,20.68,0,0,1,1.5-7.92A19.47,19.47,0,0,1,639,17.26a19,19,0,0,1,7.66-1.56,20,20,0,0,1,4.89.59,16.9,16.9,0,0,1,4.31,1.76,16.7,16.7,0,0,1,3.55,2.79A14.4,14.4,0,0,1,662,24.5l-8.23,6.3A8.76,8.76,0,0,0,650.64,27a7.52,7.52,0,0,0-4.4-1.45,6.41,6.41,0,0,0-3.15.79,7.64,7.64,0,0,0-2.5,2.22,11,11,0,0,0-1.65,3.37,15,15,0,0,0-.59,4.29,14.78,14.78,0,0,0,.59,4.31,10.27,10.27,0,0,0,1.68,3.32A7.61,7.61,0,0,0,643.2,46a7.21,7.21,0,0,0,3.32.77,8.27,8.27,0,0,0,4-1,12.39,12.39,0,0,0,3.54-3h-7.09V34.83h16.57V56.28h-9.14Z"/><path class="cls-3" d="M707.54,29.15A32.52,32.52,0,0,0,704,27.33a31.13,31.13,0,0,0-3.43-1.27,12.35,12.35,0,0,0-3.72-.6,5.11,5.11,0,0,0-2.36.46,1.59,1.59,0,0,0-.88,1.53,1.73,1.73,0,0,0,.52,1.3,4.78,4.78,0,0,0,1.47.94,18.14,18.14,0,0,0,2.36.82c.92.27,2,.59,3.15,1a41.79,41.79,0,0,1,5,1.87A15.66,15.66,0,0,1,710,35.76a9.26,9.26,0,0,1,2.44,3.38,12.21,12.21,0,0,1,.85,4.83,12.71,12.71,0,0,1-1.33,6.1A10.92,10.92,0,0,1,708.42,54a14.63,14.63,0,0,1-4.94,2.13,23.62,23.62,0,0,1-5.53.66,30.9,30.9,0,0,1-4.54-.35,37.32,37.32,0,0,1-4.63-1A41.08,41.08,0,0,1,684.35,54a27.21,27.21,0,0,1-3.94-1.93l4.77-9.7a32.8,32.8,0,0,0,4.14,2.21,28.3,28.3,0,0,0,4.12,1.53,16.16,16.16,0,0,0,4.68.68,4.75,4.75,0,0,0,2.52-.48,1.45,1.45,0,0,0,.71-1.27,1.8,1.8,0,0,0-.71-1.45,6.32,6.32,0,0,0-1.95-1.05c-.84-.31-1.79-.61-2.87-.91s-2.22-.66-3.43-1.08a28.88,28.88,0,0,1-4.6-2,12.35,12.35,0,0,1-3.18-2.38,8.58,8.58,0,0,1-1.85-3,12,12,0,0,1-.59-3.92,13.44,13.44,0,0,1,1.22-5.9,12.16,12.16,0,0,1,3.32-4.26,15,15,0,0,1,4.8-2.58,18.09,18.09,0,0,1,5.7-.88,21.14,21.14,0,0,1,4.31.43,32.66,32.66,0,0,1,4.06,1.08,36.8,36.8,0,0,1,3.66,1.41c1.14.52,2.16,1,3.07,1.45Z"/></svg>